<?xml version="1.0" encoding="utf-8" standalone="no"?>
<svg version="1.1" viewBox="0 0 60 42" xmlns="http://www.w3.org/2000/svg">
  <rect style="fill:none;opacity:0" width="60" height="42"/>
  <path style="fill:#ffffff" d="m 0.404,19.951 c 0.07,-0.07 0.57,-0.55 0.65,-0.62 2.38,-2.01 5.7,-3.32 9.23,-3.32 3.05,0 6.05,1.03 8.56,2.91 l 2.499,-3.77 -2.48,-6.53 c -0.3,0.06 -0.6,0.1 -0.92,0.1 -1.85,0 -3.83,-1.39 -3.83,-2.91 0,-0.73 0.59,-1.08 1.55,-1.08 1.62,0 2.1,0.05 4.91,0.05 h 3.83 c 0.96,0 1.5,0.6 1.5,1.33 0,0.73 -0.6,1.21 -1.38,1.27 l -0.78,0.06 c -0.93,0.06 -1.69,0.21 -2.36,0.39 l 7.04,18.59 0.65,-0.06 c 1.06,-0.12 1.96,0.01 2.76,0.45 1.14,-5.15 4.14,-9.13 8.19,-11.88 l -1.99,-5.27 c -0.39,-1.04 -0.13,-2.08 0.59,-2.91 0.82,-0.95 1.18,-1.72 1.18,-2.71 0,-0.75 -0.58,-1.47 -1.63,-1.47 -0.76,0 -1.55,0.76 -1.85,1.05 -0.52,0.51 -1.3,0.56 -1.83,0.07 -0.53,-0.5 -0.56,-1.33 -0.07,-1.85 0.17,-0.19 1.71,-1.81 3.71,-1.84 1.44,-0.03 2.62,0.58 3.41,1.56 0.73,0.9 0.99,2.1 0.73,3.38 -0.19,0.94 -1,2.4 -1.82,3.37 l 0.15,0.32 5.3,0.04 c 0.78,0 1.2,0.36 1.8,1.09 1.5,1.76 5.57,2.37 7.54,-2.06 0.66,-1.46 2.7,-0.73 2.1,0.97 l -2.512,7.4 c -0.18,0.6 -0.66,0.97 -1.38,0.97 h -4.97 c -0.66,0 -1.08,-0.3 -1.38,-1.03 l -2.04,-5.22 h -3.72 l 4.63,12.38 c 0.96,2.48 2.34,4.85 3.6,6.43 1.14,1.46 -0.72,3.09 -2.04,1.51 -1.25,-1.45 -2.93,-4.06 -3.95,-6.79 l -2.55,-6.74 c -4.03,2.99 -6.45,7.51 -6.73,12.2 l -0.06,0.85 c -0.24,3.64 -2.63,4.91 -5.57,4.61 l -15.629,-1.7 c -1.74,-0.18 -2.75,-1.27 -2.75,-2.85 0,-0.88 0.47,-1.7 1.23,-2.22 -2.78,-3.03 -6.27,-5.31 -9.95,-6.21 -0.09,-0.02 -0.58,-0.16 -0.67,-0.18 -0.97,-0.17 -1.19,-1.43 -0.5,-2.14 m 22.091,-1.8 -6.3,9.489 9.55,-0.94 z m 7.26,14.97 c 1.26,0 2.27,-1.04 2.27,-2.31 0,-1.27 -1.01,-2.31 -2.27,-2.31 -1.2,0 -2.28,1.03 -2.28,2.31 0,1.27 1.08,2.31 2.28,2.31 M 5.313,26.07 c -0.9,1.45 -1.32,2.97 -1.32,4.49 0,4.85 3.89,8.73 8.68,8.73 2.63,0 4.97,-1.16 6.41,-3.09 l 3.17,0.36 c -1.96,3.28 -5.55,5.44 -9.57,5.44 -6.23,0 -11.32,-5.13 -11.32,-11.43 0,-1.94 0.54,-4 1.56,-5.7 0.78,0.3 1.68,0.73 2.4,1.21 m 36.529,-0.79 c -1.08,1.46 -1.74,3.28 -1.74,5.28 0,4.85 3.83,8.73 8.63,8.73 4.73,0 8.62,-3.89 8.62,-8.73 0,-4.79 -3.89,-8.73 -8.62,-8.73 -0.36,0 -0.72,0 -1.02,0.06 l -0.96,-2.55 c 0.6,-0.12 1.25,-0.18 1.98,-0.18 C 54.972,19.17 60,24.26 60,30.57 59.999,36.87 54.961,42 48.742,42 c -6.23,0 -11.32,-5.12 -11.32,-11.43 0,-3.16 1.32,-6.07 3.35,-8.13 z"/>
</svg>
