<?xml version="1.0" encoding="UTF-8" standalone="no"?>
<svg version="1.1" viewBox="0 0 100 26" xmlns="http://www.w3.org/2000/svg">
  <rect style="opacity:0" width="100" height="26"/>
  <g style="opacity:1;fill:#333333;fill-opacity:1;stroke:#ffffff;stroke-width:1;stroke-linecap:round;stroke-linejoin:miter;stroke-miterlimit:4;stroke-dasharray:none;stroke-opacity:1">
    <path d="M 1.1,1.7 17,1.9 v 4.09 L 7,6 6.9,10 13,9.8 l 0.2,5.3 h -8 L 5.6,24 H 0.52 Z"/>
    <path d="m 18.4,1 h 5.4 l 0.1,23 h -5.5 z"/>
    <path d="M 24.8,1 H 29.9 l 1.6,17.3 8.4,-0.72 0.24,5.57 -12.9,0.86 z"/>
    <path d="m 39.4,1 h 5.1 L 46.2,18.3 54.5,17.581203 54.8,23.2 41.9,24 Z"/>
    <path d="m 59.28,0.9 -4.3,23.33 6.064,-0.196 0.266,-4.217 4.813,-0.231 1.39,3.94 6.65,0.19 L 64,0.8 Z m 3.17,7.55 2.29,6.46 -3.1,0 z"/>
    <path d="M 74.34,0.52 73.34,24.4 l 5.84,0 0,-5.7 1.6,-0.3 c 0,0 0.34,1.57 0.9,2.47 0.56,0.88 2.3,2.55 4.15,3.44 1.95,0.75 4.42,1.18 6.24,1.2 l 1,-5.68 c -1.75,0 -4,-0.12 -5.12,-0.58 -1.26,-0.66 -1.92,-1.55 -2.54,-2.64 0,0 1.53,-0.7 4.28,-2.1 0.4,-0.4 2.63,-1.6 2.7,-4.86 0,-3.58 -1.87,-5.72 -4.87,-7.1 C 83.46,0.85 78.78,0.39 74.34,0.52 Z m 4.94,5.26 c 0,0 3,-0.2 4.24,0.38 1.48,0.7 2.2,1.76 2.24,3.16 0,1.62 -0.93,2.45 -2.56,3.043 -1.04,0.33 -4.1,0.21 -4.1,0.21 z"/>
    <path d="M 94,1 99.37,0.88 99.3,24.23 94,23.89 Z"/>
  </g>
</svg>
