<?xml version="1.0" encoding="UTF-8" standalone="no"?>
<svg viewBox="0 0 640 240" version="1.1" xmlns="http://www.w3.org/2000/svg">
  <rect  style="opacity:0;fill:#ffffff" width="640" height="240"/>
  <g style="fill:#007ac9;fill-opacity:1;fill-rule:nonzero;stroke:none">
    <path d="m 223.78,101.89 c -0.56,0 -11,0.12 -18.91,7.35 L 188.92,71.92 C 199.8,71.6 207.27,64.54 207.67,64.16 217.34,54.77 218.82,42.57 211.17,35.15 203.51,27.74 190.95,29.15 181.28,38.54 180.87,38.94 173.59,46.18 173.26,56.72 L 134.79,41.26 c 7.45,-7.71 7.57,-17.8 7.57,-18.36 0,-13.27 -7.84,-22.9 -18.67,-22.90 -10.79,0 -18.65,9.64 -18.65,22.9 0,0.55 0.12,10.65 7.59,18.36 L 74.13,56.72 C 73.81,46.18 66.53,38.94 66.12,38.54 56.44,29.15 43.86,27.74 36.25,35.15 28.59,42.57 30.06,54.77 39.72,64.16 40.13,64.54 47.59,71.6 58.47,71.92 L 42.54,109.23 C 34.61,102.01 24.18,101.88 23.61,101.88 9.94,101.88 0,109.5 0,120 c 0,10.49 9.94,18.09 23.61,18.09 0.57,0 11,-0.11 18.92,-7.35 l 15.93,37.32 c -10.87,0.317 -18.33,7.38 -18.73,7.78 -9.67,9.36 -11.15,21.56 -3.49,28.99 7.62,7.41 20.2,6 29.87,-3.4 0.41,-0.38 7.69,-7.63 8.02,-18.16 l 38.49,15.45 c -7.47,7.7 -7.59,17.79 -7.59,18.33 0,13.3 7.84,22.91 18.65,22.91 10.83,0 18.67,-9.62 18.67,-22.91 0,-0.54 -0.12,-10.64 -7.57,-18.33 l 38.47,-15.45 c 0.33,10.53 7.61,17.78 8.02,18.16 9.66,9.39 22.23,10.81 29.89,3.4 7.65,-7.43 6.16,-19.63 -3.5,-29 -0.4,-0.4 -7.87,-7.46 -18.76,-7.78 L 204.87,130.75 c 7.92,7.24 18.35,7.35 18.91,7.35 13.69,0 23.61,-7.6 23.61,-18.09 0,-10.51 -9.93,-18.12 -23.61,-18.12 M 176.12,170.84 123.69,191.89 71.28,170.84 49.55,120 v -0.02 l 21.73,-50.82 52.41,-21.06 52.43,21.06 21.73,50.82 v 0.02 z M 188.88,45.89 C 194.16,40.8 200.34,39.36 203.58,42.52 c 3.23,3.16 1.78,9.15 -3.48,14.26 -0.39,0.35 -6.99,6.38 -15.63,4.27 -2.15,-8.38 4.05,-14.8 4.4,-15.16 M 123.69,10.43 c 4.615,0 7.934,5.24 7.94,12.47 0,0.51 -0.3,9.29 -7.94,13.73 -7.62,-4.44 -7.9,-13.21 -7.92,-13.73 0.02,-7.23 3.35,-12.47 7.92,-12.47 M 43.82,42.52 C 47.07,39.36 53.25,40.8 58.52,45.89 58.89,46.25 65.09,52.66 62.92,61.05 54.28,63.15 47.69,57.12 47.31,56.77 42.04,51.66 40.58,45.67 43.82,42.52 M 23.59,127.69 c -7.44,-0.02 -12.85,-3.25 -12.85,-7.69 0,-4.46 5.42,-7.7 12.85,-7.71 0.52,0 9.57,0.28 14.15,7.71 -4.58,7.41 -13.63,7.67 -14.15,7.69 m 34.94,66.41 c -5.28,5.09 -11.45,6.53 -14.71,3.36 -3.23,-3.15 -1.78,-9.14 3.49,-14.25 0.38,-0.34 6.98,-6.37 15.62,-4.25 2.17,8.38 -4.04,14.77 -4.39,15.14 m 65.16,35.44 c -4.57,0 -7.9,-5.22 -7.92,-12.44 0.02,-0.52 0.31,-9.29 7.92,-13.75 7.65,4.46 7.93,13.22 7.94,13.75 0,7.22 -3.33,12.44 -7.94,12.44 m 79.89,-32.08 c -3.23,3.17 -9.42,1.73 -14.7,-3.36 -0.36,-0.38 -6.55,-6.76 -4.4,-15.14 8.64,-2.12 15.24,3.91 15.63,4.25 5.26,5.11 6.71,11.1 3.48,14.25 m 20.23,-69.77 c -0.52,-0.02 -9.57,-0.28 -14.14,-7.69 4.57,-7.43 13.62,-7.7 14.14,-7.71 7.45,0 12.85,3.25 12.85,7.71 0,4.44 -5.41,7.67 -12.86,7.69"/>
    <g>
      <path d="M 315,5.24 C 315,2.36 312.73,0 310,0 307.27,0 305,2.36 305,5.24 V 234.77 C 305,237.66 307.27,240 310,240 312.73,240 315,237.66 315,234.77 Z"/>
      <path d="M 335,5.24 C 335,2.36 332.72,0 330,0 327.28,0 325,2.36 325,5.24 V 234.77 C 325,237.66 327.27,240 329.94,240 332.72,240 335,237.66 335,234.77 Z"/>
    </g>
    <g>
      <path d="m 395,30.61 c 0,-5.63 4.55,-10 10.29,-10 5.76,0 10.3,4.46 10.3,10 v 26.98 h 37.93 v -26.98 c 0,-5.63 4.54,-10 10.28,-10 5.75,0 10.3,4.46 10.3,10 V 103.67 c 0,5.64 -4.55,10 -10.3,10 -5.74,0 -10.28,-4.46 -10.28,-10 V 76.17 H 415.59 V 103.67 c 0,5.64 -4.54,10 -10.3,10 -5.74,0 -10.29,-4.46 -10.29,-10 z"/>
      <path d="m 490.7,103.28 c -2.26,-1.55 -3.87,-4.44 -3.87,-7.59 0,-5.26 4.29,-9.31 9.63,-9.31 2.66,0 4.54,0.93 5.86,1.85 7.08,5.10 14.83,8.23 23.91,8.23 8.42,0 13.49,-3.27 13.49,-8.64 v -0.23 c 0,-5.13 -3.21,-7.75 -18.83,-11.67 C 501.62,71.19 489.47,66.09 489.47,47.89 V 47.63 C 489.47,31.01 503.1,20 522.19,20 c 11.36,0 21.25,2.87 29.66,8.11 2.27,1.31 4.54,4.07 4.54,8 0,5.24 -4.28,9.3 -9.62,9.3 -2,0 -3.6,-0.52 -5.21,-1.45 -6.81,-3.93 -13.23,-6.14 -19.63,-6.14 -7.88,0 -12.03,3.53 -12.03,7.98 v 0.26 c 0,6.03 4.01,8 20.17,12.06 18.97,4.84 29.65,11.51 29.65,27.49 v 0.27 c 0,18.2 -14.17,28.41 -34.33,28.41 -12.28,0 -24.71,-3.66 -35.14,-11"/>
      <path d="m 572,30.61 c 0,-5.63 4.53,-10.09 10.28,-10.09 5.75,0 10.29,4.46 10.29,10.09 v 64.03 h 38.08 c 5.22,0 9.36,4.07 9.36,9.17 0,5.1 -4.14,9.16 -9.34,9.16 h -48.36 c -5.75,0 -10.28,-4.45 -10.28,-10.1 z"/>
      <path d="m 397,132.26 c 0,-2.88 2.41,-5.26 5.22,-5.26 2.95,0 5.34,2.37 5.34,5.26 v 36.14 h 53.96 v -36.14 c 0,-2.88 2.4,-5.26 5.35,-5.26 2.79,0 5.2,2.37 5.2,5.26 v 82.49 C 472.08,217.64 469.66,220 466.88,220 463.92,220 461.53,217.64 461.53,214.75 v -36.68 h -53.96 v 36.68 C 407.56,217.64 405.17,220 402.22,220 399.41,220 397,217.64 397,214.75 Z"/>
      <path d="m 487.07,132.91 c 0,-2.88 2.4,-5.23 5.2,-5.23 h 35.02 c 11.49,0 20.69,3.39 26.58,9.14 4.54,4.47 7.23,10.89 7.23,18.09 v 0.25 c 0,15.06 -10.43,23.84 -25,26.59 l 23.25,29.32 c 1.06,1.18 1.75,2.36 1.75,3.82 0,2.74 -2.69,5.08 -5.36,5.08 -2.13,0 -3.74,-1.18 -4.94,-2.74 l -26.32,-33.52 h -26.85 v 31.03 c 0,2.89 -2.4,5.24 -5.35,5.24 -2.8,0 -5.2,-2.34 -5.2,-5.24 z m 39.26,41.51 c 14.03,0 24.05,-7.07 24.05,-18.87 v -0.246 c 0,-11.25 -8.82,-18.07 -23.91,-18.07 h -28.85 v 37.19 z"/>
      <path d="m 597.25,137.23 h -27.12 c -2.67,0 -4.95,-2.09 -4.95,-4.72 0,-2.62 2.27,-4.84 4.95,-4.84 h 64.92 c 2.67,0 4.95,2.22 4.95,4.84 0,2.63 -2.27,4.72 -4.95,4.72 h -27.11 v 77.53 c 0,2.88 -2.41,5.23 -5.35,5.23 -2.93,0 -5.34,-2.34 -5.34,-5.23 z"/>
    </g>
  </g>
</svg>
