<?xml version="1.0" encoding="UTF-8" standalone="no"?>
<svg version="1.1" viewBox="0 0 86 86" xmlns="http://www.w3.org/2000/svg">
  <rect style="opacity:0;fill:#ffffff" width="86" height="86"/>
  <ellipse style="fill:#fcb919" cx="43" cy="43" rx="42" ry="42"/>
  <circle style="fill:none;stroke:#333333;stroke-width:3" cx="43" cy="43" r="41.5"/>
  <path style="fill:#333333;fill-rule:nonzero;stroke:none" d="m 13.404,41.963 c 0.074,-0.072 0.574,-0.553 0.65,-0.618 2.384,-2.01 5.698,-3.319 9.235,-3.319 3.054,0 6.048,1.028 8.565,2.912 l 2.5,-3.768 -2.477,-6.526 c -0.3,0.06 -0.602,0.103 -0.922,0.103 -1.855,0 -3.831,-1.394 -3.831,-2.912 0,-0.727 0.594,-1.077 1.555,-1.077 1.617,0 2.1,0.049 4.911,0.049 h 3.834 c 0.956,0 1.5,0.604 1.5,1.334 0,0.727 -0.602,1.211 -1.38,1.274 l -0.778,0.06 c -0.933,0.057 -1.694,0.212 -2.358,0.392 l 7.04,18.592 0.648,-0.063 c 1.063,-0.115 1.957,0.0142 2.76,0.447 1.14,-5.151 4.142,-9.134 8.186,-11.88 l -1.993,-5.266 c -0.393,-1.0394 -0.127,-2.076 0.588,-2.912 0.817,-0.951 1.182,-1.718 1.182,-2.715 0,-0.753 -0.585,-1.472 -1.634,-1.472 -0.761,0 -1.547,0.756 -1.846,1.048 -0.523,0.507 -1.304,0.561 -1.832,0.072 -0.526,-0.498 -0.557,-1.329 -0.071,-1.855 0.17,-0.189 1.711,-1.81 3.71,-1.844 1.439,-0.031 2.615,0.581 3.41,1.555 0.735,0.902 0.992,2.1 0.732,3.382 -0.189,0.939 -1,2.397 -1.821,3.373 l 0.15,0.321 5.302,0.037 c 0.780,0 1.2,0.361 1.798,1.088 1.496,1.764 5.567,2.368 7.544,-2.059 0.659,-1.455 2.697,-0.727 2.098,0.971 l -2.514,7.4 c -0.181,0.604 -0.662,0.968 -1.38,0.968 h -4.971 c -0.659,0 -1.08,-0.3 -1.377,-1.028 l -2.036,-5.217 h -3.721 l 4.626,12.375 c 0.959,2.485 2.336,4.848 3.5954,6.428 1.137,1.455 -0.718,3.092 -2.039,1.512 -1.255,-1.452 -2.932,-4.063 -3.95,-6.792 L 54.039,39.592 c -4.026,2.989 -6.447,7.511 -6.732,12.2 l -0.062,0.848 c -0.238,3.642 -2.635,4.911 -5.567,4.613 L 26.043,55.552 c -1.736,-0.18 -2.754,-1.271 -2.754,-2.849 0,-0.882 0.469,-1.7 1.233,-2.216 -2.782,-3.029 -6.269,-5.314 -9.947,-6.211 -0.09,-0.023 -0.582,-0.163 -0.673,-0.178 -0.97,-0.175 -1.19,-1.432 -0.498,-2.136 m 22.086,-1.801 -6.303,9.495 9.549,-0.936 z M 42.754,55.131 c 1.258,0 2.273,-1.037 2.273,-2.308 0,-1.271 -1.015,-2.305 -2.273,-2.305 -1.196,0 -2.276,1.034 -2.276,2.305 0,1.271 1.08,2.308 2.276,2.308 M 18.318,48.093 c -0.9,1.452 -1.318,2.972 -1.318,4.49 0,4.848 3.894,8.733 8.683,8.733 2.635,0 4.971,-1.157 6.407,-3.092 l 3.175,0.364 c -1.976,3.273 -5.567,5.395 -9.583,5.395 -6.229,0 -11.319,-5.094 -11.319,-11.4 0,-1.944 0.54,-4 1.558,-5.7 0.778,0.304 1.677,0.727 2.395,1.211 m 36.532,-0.787 c -1.077,1.457 -1.736,3.276 -1.736,5.277 0,4.848 3.834,8.733 8.627,8.733 4.731,0 8.624,-3.886 8.624,-8.733 0,-4.793 -3.894,-8.733 -8.624,-8.733 -0.362,0 -0.721,0 -1.021,0.06 l -0.956,-2.548 c 0.597,-0.12 1.255,-0.18 1.976,-0.18 6.226,0 11.259,5.094 11.259,11.402 0,6.305 -5.033,11.4 -11.259,11.4 -6.229,0 -11.322,-5.094 -11.322,-11.4 0,-3.158 1.318,-6.065 3.353,-8.126 z"/>
</svg>
